<svg data-name="Layer 1" xmlns="http://www.w3.org/2000/svg" viewBox="0 0 841.89 368.53"><path d="M899 312.67c-54.85 126.81-176.09 212.33-296.5 200-45.66-4.7-89.55-22.18-133.41-37.81-64.36-22.95-129.76-42.18-196.18-54.55-47.18-8.79-96.22-14-142.1 1.63-50.06 17-92 57.34-128.81 100.73-5.51 6.49-13.32 13.62-20.26 9.42-5.22-3.16-6.61-11.06-7.24-17.93-4.09-44.85-.94-90.14-1.7-135.24C-28.92 276-51.06 173.36-41.51 71c1.21-13 3.17-26.62 10.16-36.8C-23 22.12-19.2 2-6.36-1.69c124.55-36.1 264.27-17.43 392.55-18.25q136.41-.89 272.73-8.37c49.32-2.71 99.61-5.95 147.29 9.15C817.45-15.6 828.92-10.71 837-.83c10 12.25 13.14 30 15.83 46.66 10.1 62.54 20.24 125.54 20 189.2-.11 35.22-2.85 73.09 13 103" fill="#3f51b5"/><path d="M801.53 303.42c-65.78 50.82-153.63 76.37-237.83 65.78-58.63-7.38-113.26-31.2-168.7-50.52S279.71 284 221.62 294.55c-51.12 9.24-96.16 37.73-135 70.45S13.49 435.17-25.8 467.45c-7.44 6.11-18.82 12.09-26.19 5.91-3-2.53-4.22-6.45-4.95-10.21-6-31 11.13-61.52 28.9-88.22C4.87 325.47 43 277.68 93.6 244.18c80-52.94 181.56-64.56 273.73-95 134-44.28 251.23-129.83 389.3-160.78 17.16-3.84 35.17-6.8 52.3-2.85s33.16 16.47 35.46 33c2.74 19.67-13.78 36.89-30.73 48.59-77.43 53.46-181.62 55-269.07 92.2-28.1 11.95-55.59 28.74-70.24 54.38-4.18 7.33-7.21 16.25-3.6 23.84 4.05 8.53 14.84 12.08 24.65 13.26 28.26 3.41 56.55-5.27 82.73-15.87 82.81-33.58 154.33-86.72 234.51-124.95 25.49-12.17 81.72-43.21 101.89-7.8 15.92 28-12.76 75.25-26.28 99.71a330.13 330.13 0 01-86.72 101.51z" fill="#647adc" opacity=".09"/><path d="M-74.35 630.35c2.81-44.76 32.17-84.42 65.1-117.55 57.19-57.57 130.72-104.18 214-119.3 110.56-20.07 224.55 16.5 336.87 8.1 144.2-10.8 277.6-102.34 329.62-226.17" stroke-width=".25" fill="none" stroke="#fff" stroke-miterlimit="10"/><path d="M322.1-16.35c-8 53.23-25.48 110-73.33 142.5-53.77 36.46-128.17 31.3-193.55 46.14-65.57 14.89-125.49 53-156.95 106.54" stroke-width=".5" opacity=".66" fill="none" stroke="#fff" stroke-miterlimit="10"/></svg>