<svg xmlns="http://www.w3.org/2000/svg" width="1000" height="1000"><g fill="#E10000"><path d="M183.364 527.868c0-96.468 48.791-180.428 122.011-235.123 17.272-12.899 51.884-18.638 65.796-2.15 8.621 10.203 11.702 22.475 12.053 34.123.672 21.556-21.666 47.801-37.038 62.913-36.729 36.14-59.872 85.137-59.872 140.525 0 115.881 93.933 203.726 209.805 203.726 115.922 0 209.877-87.845 209.877-203.726 0-59.055-22.557-110.907-60.008-147.586-15.391-15.093-36.295-41.762-32.933-63.076 1.931-12.302 7.256-24.478 18.876-33.256 17.208-12.993 51.675-3.711 68.698 9.532 70.264 54.684 115.996 138.251 115.996 234.098 0 169.82-150.593 301.379-320.466 301.379-169.8.011-312.795-131.57-312.795-301.379"/><path d="M502.279 559.643c-21.19 0-50.63-24.84-50.63-46.01V218.339c0-2.966.494-47.594 49.12-47.594 21.192 0 49.094 11.132 49.094 47.594v295.294c.009 21.17-26.299 46.01-47.584 46.01"/></g></svg>