<svg xmlns="http://www.w3.org/2000/svg" width="295.928" height="295.928"><path d="M72.751 193.624c25.71-1.771 46.091-23.264 46.091-49.447 0-27.338-22.217-49.578-49.524-49.578-27.309 0-49.526 22.24-49.526 49.578 0 26.182 20.381 47.674 46.092 49.447-19.25.74-36.203 7.695-48.019 19.789C5.726 225.837-.443 243.038.025 263.159a10 10 0 009.997 9.768h118.582c5.433 0 9.871-4.338 9.997-9.771.467-20.122-5.703-37.325-17.843-49.749-11.813-12.09-28.761-19.043-48.007-19.783zM170.368 186L281 56.407" fill="#FFF"/><path d="M170.368 186L281 56.407" stroke="#FFF" stroke-width="26.667" stroke-linecap="round" fill="none"/><path d="M281 186L170.368 56.407" fill="#FFF"/><path d="M281 186L170.368 56.407" stroke="#FFF" stroke-width="26.667" stroke-linecap="round" fill="none"/></svg>