<svg xmlns="http://www.w3.org/2000/svg" width="295.928" height="295.928"><g fill="#FFF"><path d="M193.686 68.762c-3.907 3.902-3.909 10.234-.005 14.141 26.269 26.287 26.252 69.074-.037 95.379-3.904 3.908-3.902 10.238.004 14.143a9.973 9.973 0 007.069 2.928c2.561 0 5.12-.979 7.073-2.932 34.079-34.1 34.096-89.57.037-123.654-3.902-3.907-10.235-3.911-14.141-.005zm-37.385 28.686c-3.907 3.902-3.909 10.234-.005 14.141 10.472 10.48 10.471 27.533-.002 38.014-3.904 3.906-3.902 10.238.005 14.143a9.968 9.968 0 007.068 2.926 9.958 9.958 0 007.073-2.932c18.263-18.275 18.264-48.012.002-66.287-3.902-3.909-10.235-3.911-14.141-.005z"/><path d="M252.097 24.471c-3.904-3.908-10.235-3.91-14.142-.006-3.907 3.904-3.909 10.236-.005 14.143 50.671 50.703 50.649 133.225-.052 183.951-3.904 3.906-3.902 10.238.004 14.143a9.973 9.973 0 007.069 2.928c2.56 0 5.12-.979 7.073-2.932 58.492-58.523 58.515-153.728.053-212.227zM72.751 195.087c25.71-1.771 46.091-23.264 46.091-49.447 0-27.338-22.217-49.578-49.524-49.578-27.309 0-49.526 22.24-49.526 49.578 0 26.182 20.381 47.674 46.092 49.447-19.25.74-36.203 7.695-48.019 19.789C5.726 227.3-.443 244.501.025 264.622a10 10 0 009.997 9.768h118.582c5.433 0 9.871-4.338 9.997-9.77.467-20.123-5.703-37.326-17.843-49.75-11.813-12.09-28.761-19.043-48.007-19.783z"/></g></svg>